<svg width="96" height="96" xmlns="http://www.w3.org/2000/svg" xmlns:xlink="http://www.w3.org/1999/xlink"><defs><path d="M24.54 9.087a12.535 12.535 0 0 1 8.935 10.043c5.083.877 9.121 4.846 10.118 9.902 5.18.971 9.24 5.162 10.035 10.417 4.472.759 8.14 3.91 9.648 8.092l22.279 22.35c2.232 2.239 2.464 5.638.518 7.59l-8.635 8.663c-1.947 1.952-5.334 1.72-7.567-.52L47.963 63.646a12.541 12.541 0 0 1-8.655-10.076c-5.097-.866-9.15-4.839-10.148-9.905-5.142-.964-9.181-5.098-10.019-10.297-4.721-.816-8.541-4.299-9.859-8.843C4.046 23.046.197 18.219.184 12.501.17 5.617 5.721.048 12.583.063c5.663.012 10.449 3.823 11.957 9.024z" id="a"/></defs><g fill="none" fill-rule="evenodd"><g transform="translate(4 4)"><use fill="#FF526F" xlink:href="#a"/><path stroke="#903142" stroke-width="4" d="M26.12 7.498a14.548 14.548 0 0 1 9.045 9.962 14.542 14.542 0 0 1 10.077 9.908c4.959 1.41 8.825 5.398 10.088 10.41a14.538 14.538 0 0 1 9.664 8.654l21.977 22.047c2.97 2.98 3.289 7.635.519 10.414l-8.636 8.663c-2.775 2.783-7.425 2.464-10.4-.52l-21.571-21.64a14.55 14.55 0 0 1-9.277-10.156 14.538 14.538 0 0 1-10.096-9.91 14.542 14.542 0 0 1-10.059-10.292 14.545 14.545 0 0 1-9.748-8.923 14.537 14.537 0 0 1-9.519-13.61c-.016-7.99 6.432-14.46 14.403-14.442 6.097.013 11.45 3.85 13.532 9.435z"/></g><path d="M52.234 67.882l15.61-15.66 3.769 3.782-15.609 15.659z" fill="#FFF"/><circle fill="#FFF" cx="70" cy="70" r="3"/><circle fill="#FFF" cx="78" cy="78" r="3"/></g></svg>