<svg xmlns="http://www.w3.org/2000/svg" width="24" height="24"><g fill="none" stroke="#000" stroke-linejoin="round" stroke-miterlimit="10"><path d="M21.5 11.001c-4.951 2.52-8.355 6.659-9.5 8.246 1.091 1.747 3.109 2.911 5.32 2.911a6.18 6.18 0 0 0 6.18-6.178c0-1.888-.666-3.846-2-4.979zM2.5 11.001c4.949 2.52 8.357 6.659 9.5 8.246-1.091 1.747-3.108 2.911-5.321 2.911A6.18 6.18 0 0 1 .5 15.98c0-1.888.664-3.846 2-4.979z"/><path stroke-linecap="round" d="M2.5 11.001v-7M21.5 11.001v-7"/></g><path fill="none" d="M0 0h24v24H0z"/></svg>