<svg xmlns="http://www.w3.org/2000/svg" width="131" height="236"><path fill-rule="evenodd" fill="#FFF" d="M.041 168.754c0 44.7 16.8 66.6 63.001 66.6 44.7 0 67.5-26.7 67.5-69.9 0-32.101-11.1-47.101-34.2-56.101 23.1-9.6 30.9-32.7 30.9-50.4 0-39.901-27-58.801-61.8-58.801-41.401.6-62.701 22.2-62.701 63.901h27c0-29.401 15.001-38.701 35.401-38.701 22.8 0 34.5 12.3 34.5 33.301 0 21.9-22.5 37.5-39.3 38.1h-16.5v25.2h16.5c21.9 0 40.2 10.5 40.2 43.801 0 30.9-13.2 41.7-37.8 41.7-25.2 0-34.801-11.4-34.801-38.7H.041z"/></svg>