<svg xmlns="http://www.w3.org/2000/svg" width="24" height="24"><g fill="none" stroke="#000" stroke-linecap="round" stroke-linejoin="round" stroke-miterlimit="10"><path d="M8.572 7.056l-.825 5.186-.826-2.592-.826 2.592-.826-5.186M13.651 7.056l-.824 5.186-.826-2.592-.826 2.592-.826-5.186M18.731 7.056l-.825 5.186-.826-2.592-.826 2.592-.826-5.186"/></g><g fill="none" stroke="#000" stroke-linejoin="round" stroke-miterlimit="10"><path stroke-linecap="round" d="M23.5 18.911c0 .878-.671 1.589-1.5 1.589H2c-.828 0-1.5-.711-1.5-1.589V4.089C.5 3.211 1.172 2.5 2 2.5h20c.829 0 1.5.711 1.5 1.589v14.822zM5 22.5h14M11.5 20.5v2"/><circle cx="12" cy="18.5" r=".5"/><path d="M.5 16.5h23"/></g><g><path fill="none" d="M0 0h24v24H0z"/></g></svg>