<svg xmlns="http://www.w3.org/2000/svg" width="24" height="24"><g fill="none" stroke="#000" stroke-linejoin="round" stroke-miterlimit="10"><path stroke-linecap="round" d="M2.5 14.5a2 2 0 0 1 0-4M14.5 21.5h2c1.934 0 3.5-1.066 3.5-3v-1.064"/><circle stroke-linecap="round" cx="13" cy="21.5" r="1.5"/><path stroke-linecap="round" d="M6.5 17.5h-2a2 2 0 0 1-2-2v-6a2 2 0 0 1 2-2h2v10zM21.5 14.5a2 2 0 0 0 0-4M17.5 17.5h2a2 2 0 0 0 2-2v-6a2 2 0 0 0-2-2h-2v10z"/><path d="M5 7.5a7 7 0 1 1 14 0"/></g><g><path fill="none" d="M0 0h24v24H0z"/></g></svg>