<svg xmlns="http://www.w3.org/2000/svg" xmlns:xlink="http://www.w3.org/1999/xlink"><symbol id="int-1"><path fill-rule="evenodd" fill="#FFF" d="M.241 232.154h101.701v-24.3h-35.7V.552H8.341v25.5h29.4v181.802H.241v24.3z"/></symbol><symbol id="int-12"><path fill-rule="evenodd" fill="#FFF" d="M150.841 189.254v17.7h95.701v28.2H121.741v-45.6c0-98.101 97.801-73.201 97.801-128.701 0-22.801-10.801-33.901-35.101-33.901-22.2 0-34.5 12-34.5 38.701h-28.5c0-45.001 25.5-64.801 64.2-64.801 38.401 0 62.701 18.6 62.701 59.701 0 83.7-97.501 46.8-97.501 128.701zm-150.6 21.6h37.5V29.052h-29.4v-25.5h57.901v207.302h35.7v24.3H.241v-24.3z"/></symbol><symbol id="int-3"><path fill-rule="evenodd" fill="#FFF" d="M.041 168.754c0 44.7 16.8 66.6 63.001 66.6 44.7 0 67.5-26.7 67.5-69.9 0-32.101-11.1-47.101-34.2-56.101 23.1-9.6 30.9-32.7 30.9-50.4 0-39.901-27-58.801-61.8-58.801-41.401.6-62.701 22.2-62.701 63.901h27c0-29.401 15.001-38.701 35.401-38.701 22.8 0 34.5 12.3 34.5 33.301 0 21.9-22.5 37.5-39.3 38.1h-16.5v25.2h16.5c21.9 0 40.2 10.5 40.2 43.801 0 30.9-13.2 41.7-37.8 41.7-25.2 0-34.801-11.4-34.801-38.7H.041z"/></symbol><symbol id="int-bra"><g fill="none" stroke="#000" stroke-linejoin="round" stroke-miterlimit="10"><path d="M21.5 11.001c-4.951 2.52-8.355 6.659-9.5 8.246 1.091 1.747 3.109 2.911 5.32 2.911a6.18 6.18 0 0 0 6.18-6.178c0-1.888-.666-3.846-2-4.979zM2.5 11.001c4.949 2.52 8.357 6.659 9.5 8.246-1.091 1.747-3.108 2.911-5.321 2.911A6.18 6.18 0 0 1 .5 15.98c0-1.888.664-3.846 2-4.979z"/><path stroke-linecap="round" d="M2.5 11.001v-7M21.5 11.001v-7"/></g><path fill="none" d="M0 0h24v24H0z"/></symbol><symbol id="int-camera"><g fill="none" stroke="#000" stroke-linecap="round" stroke-linejoin="round" stroke-miterlimit="10"><path d="M23.5 18.5c0 .549-.45 1-1 1h-21c-.55 0-1-.451-1-1v-12c0-.55.45-1 1-1h21c.55 0 1 .45 1 1v12zM3 5.5v-1c0-.55.45-1 1-1h2c.55 0 1 .45 1 1v1M.5 10.5H8M.5 12.5H8M.5 14.5H8"/><circle cx="16.5" cy="12.5" r="5"/><path d="M14.5 10.5h4v4h-4z"/></g><path fill="none" d="M0 0h24v24H0z"/></symbol><symbol id="int-folder-video"><path fill="none" stroke="#000" stroke-linecap="round" stroke-linejoin="round" stroke-miterlimit="10" d="M18.5 6.5v-2h-11l-2-2h-5v14"/><path fill="none" stroke="#000" stroke-linecap="round" stroke-linejoin="round" stroke-miterlimit="10" d="M20.5 8.5v-2h-18v12"/><path fill="none" stroke="#000" stroke-linecap="round" stroke-linejoin="round" stroke-miterlimit="10" d="M4.5 8.5h18v12h-18z"/><path fill="none" stroke="#000" stroke-linejoin="round" stroke-miterlimit="10" d="M10.5 18.5v-8l6.769 4-6.769 4z"/><g><path fill="none" d="M0 0h24v24H0z"/></g></symbol><symbol id="int-headphone"><g fill="none" stroke="#000" stroke-linejoin="round" stroke-miterlimit="10"><path stroke-linecap="round" d="M2.5 14.5a2 2 0 0 1 0-4M14.5 21.5h2c1.934 0 3.5-1.066 3.5-3v-1.064"/><circle stroke-linecap="round" cx="13" cy="21.5" r="1.5"/><path stroke-linecap="round" d="M6.5 17.5h-2a2 2 0 0 1-2-2v-6a2 2 0 0 1 2-2h2v10zM21.5 14.5a2 2 0 0 0 0-4M17.5 17.5h2a2 2 0 0 0 2-2v-6a2 2 0 0 0-2-2h-2v10z"/><path d="M5 7.5a7 7 0 1 1 14 0"/></g><g><path fill="none" d="M0 0h24v24H0z"/></g></symbol><symbol id="int-progWebsite"><g fill="none" stroke="#000" stroke-linecap="round" stroke-linejoin="round" stroke-miterlimit="10"><path d="M8.572 7.056l-.825 5.186-.826-2.592-.826 2.592-.826-5.186M13.651 7.056l-.824 5.186-.826-2.592-.826 2.592-.826-5.186M18.731 7.056l-.825 5.186-.826-2.592-.826 2.592-.826-5.186"/></g><g fill="none" stroke="#000" stroke-linejoin="round" stroke-miterlimit="10"><path stroke-linecap="round" d="M23.5 18.911c0 .878-.671 1.589-1.5 1.589H2c-.828 0-1.5-.711-1.5-1.589V4.089C.5 3.211 1.172 2.5 2 2.5h20c.829 0 1.5.711 1.5 1.589v14.822zM5 22.5h14M11.5 20.5v2"/><circle cx="12" cy="18.5" r=".5"/><path d="M.5 16.5h23"/></g><g><path fill="none" d="M0 0h24v24H0z"/></g></symbol><symbol id="int-video"><g fill="none" stroke="#000" stroke-linejoin="round" stroke-miterlimit="10"><path stroke-linecap="round" d="M14.5 16.5h-9v-9h9V11l4-2.5v7l-4-2.5z"/><circle cx="12" cy="12" r="11.5"/></g><g><path fill="none" d="M0 0h24v24H0z"/></g></symbol></svg>